<svg id="visual" viewBox="0 0 900 600" width="900" height="600" xmlns="http://www.w3.org/2000/svg" xmlns:xlink="http://www.w3.org/1999/xlink" version="1.1">
<path d="M0 441L129 383L257 410L386 443L514 399L643 434L771 443L900 426L900 601L771 601L643 601L514 601L386 601L257 601L129 601L0 601Z" fill="#0b0195"></path><path d="M0 425L129 447L257 432L386 442L514 472L643 458L771 413L900 424L900 601L771 601L643 601L514 601L386 601L257 601L129 601L0 601Z" fill="#5a14a9"></path><path d="M0 492L129 510L257 444L386 480L514 473L643 470L771 509L900 452L900 601L771 601L643 601L514 601L386 601L257 601L129 601L0 601Z" fill="#8c2cbd"></path><path d="M0 536L129 493L257 498L386 483L514 485L643 505L771 513L900 519L900 601L771 601L643 601L514 601L386 601L257 601L129 601L0 601Z" fill="#ba46d1"></path><path d="M0 573L129 571L257 536L386 546L514 552L643 533L771 561L900 562L900 601L771 601L643 601L514 601L386 601L257 601L129 601L0 601Z" fill="#e761e5"></path></svg>